# xmcd
#
# Track frame offsets:
#	150
#	15340
#	26346
#	46365
#	57512
#	74683
#	91804
#	105602
#	122689
#	137669
#	152874
#	164653
#	179509
#	193319
#	204402
#	221186
#	240445
#	253988
#
# Disc length: 3608 seconds
#
# Revision: 1
# Processed by: cddbd v1.5.2PL0 Copyright (c) Steve Scherf et al.
# Submitted via: audiograbber 1.83.01
#
DISCID=0b0e1612
DTITLE=Various Artist - STC VOL 2
DYEAR=1900
DGENRE=COUNTRY
TTITLE0=John Dever - Thank God I'm A Country Boy
TTITLE1=Alan Jackson - Chattahoochee
TTITLE2=Faith Hill - Tim McGraw - Just To Hear You Say That You Love Me
TTITLE3=John Michael Montgomery - Sold (The Grundy County Auction Incident)
TTITLE4=Mavericks - What A Crying Shame
TTITLE5=George Strait - Carrying Your Love With  Me
TTITLE6=Dolly Parton - I Will Always Love You
TTITLE7=Deana Carter - Strawberry Wine
TTITLE8=Rankin Family - Moving On
TTITLE9=Paul Brandt - What's Come Over You
TTITLE10=Johnny Paycheck - Take This  Job And Shove It
TTITLE11=Confederate Railroad - Queen Of Memphis
TTITLE12=Wynonna Judd - When Love Starts Takin'
TTITLE13=Julian Austin - Little OL' Kisses
TTITLE14=Reba McEntire - Rumours Has It
TTITLE15=Lila McCann - I Wanna Fall In Love
TTITLE16=Michael Peterson - Drink Swear Steal and Lie
TTITLE17=Alabama - Take Me Down
EXTD=
EXTT0=
EXTT1=
EXTT2=
EXTT3=
EXTT4=
EXTT5=
EXTT6=
EXTT7=
EXTT8=
EXTT9=
EXTT10=
EXTT11=
EXTT12=
EXTT13=
EXTT14=
EXTT15=
EXTT16=
EXTT17=
PLAYORDER=
